<svg xmlns="http://www.w3.org/2000/svg" viewBox="0 0 1013 332" stroke-linejoin="round"><style>.a{fill:#fff;}</style><rect width="1012.8" height="331.1" fill="none"/><path d="M23.4 320.7c0.8 0.2 2.1 0.4 3.7 0.4 7.5 0 12.4-4.4 12.4-12.6 0-8.8-6.1-12.9-12.9-13l-3.2 0 0 25.2Zm0-30.8l3.3 0c5.9 0 11-4.5 11-11.2 0-5.8-2.7-10.4-10.5-10.4 -1.7 0-3 0.2-3.9 0.5l0 21.1Zm-7.3-26c3-0.8 6.6-1.2 10.6-1.2 5.7 0 10.6 1.2 14 4.4 2.7 2.5 4.1 6.3 4.1 10.8 0 6.5-3.6 11.7-9.8 14.1l0 0.2c7.3 2 11.8 7.9 11.8 16.2 0 5.3-1.7 9.5-4.5 12.6 -3.6 4.1-9.5 5.7-16.8 5.7 -4.7 0-7.5-0.3-9.5-0.7l0-62.3Z" class="a"/><path d="M62.5 263l0 42.6c0 11.4 3.8 15.3 8.7 15.3 5.4 0 8.8-4.1 8.8-15.3l0-42.6 7.3 0 0 41.4c0 16.5-6.8 22.8-16.2 22.8 -9.5 0-15.7-6.2-15.7-21.9l0-42.3 7.3 0Z" class="a"/><rect x="98.4" y="263" width="7.3" height="63.5" class="a"/><path d="M117 263l7.3 0 0 57.4 17.9 0 0 6.1 -25.1 0 0-63.5Z" class="a"/><path d="M156.9 320.5c1 0.2 2.1 0.2 2.7 0.2 8 0 15.7-5.7 15.7-27.3 0-16-4.9-24.8-15.1-24.8 -1.1 0-2.4 0.1-3.4 0.4l0 51.5Zm-7.3-56.6c2.8-0.8 6.1-1.2 9.8-1.2 6.7 0 11.4 1.7 14.9 4.8 4.9 4.2 8.6 12.4 8.6 25.7 0 14.5-3.6 22.4-7.6 26.8 -4.1 4.7-10.2 6.9-17.5 6.9 -2.9 0-5.9-0.2-8.1-0.7l0-62.3Z" class="a"/><rect x="191.8" y="263" width="7.3" height="63.5" class="a"/><path d="M210.4 326.4l0-63.5 6.9 0 11.7 29.8c2.6 6.8 5.9 15.3 8.1 22.1l0.2 0c-0.6-10-0.8-18.2-0.8-29.2l0-22.7 6.5 0 0 63.5 -6.9 0 -12.1-30.5c-2.5-6.4-5.3-13.7-7.5-21.6l-0.2 0c0.6 8.5 0.8 16.6 0.8 30.1l0 21.9 -6.6 0Z" class="a"/><path d="M285.5 324.8c-2.7 1.1-7.3 2.2-11.3 2.2 -5.6 0-10.7-1.5-15-6.2 -4.6-4.9-7.7-13.7-7.6-25.2 0.1-24.7 12.7-33.1 23.9-33.1 4 0 7.1 0.8 9 1.8l-1.6 6.2c-1.7-0.8-4-1.5-7.3-1.5 -7.9 0-16.5 6.3-16.5 26 0 19.6 7.4 25.9 15.1 25.9 2.4 0 3.9-0.5 4.4-0.7l0-20.7 -8.2 0 0-6 15.1 0 0 31.6Z" class="a"/><path d="M318.5 294.7c0 13.1 2.5 26.1 10.5 26.1 8.2 0 10.4-13.8 10.4-26.3 0-11.9-2.2-25.9-10.5-25.9 -7.9 0-10.5 13.2-10.5 26.1m28.4-0.5c0 23.8-8.2 33-18.4 33 -10.5 0-17.6-11.2-17.6-32.6 0-21 7.5-32.4 18.6-32.4 10.8 0 17.3 11.8 17.3 32" class="a"/><path d="M363.2 263l0 42.6c0 11.4 3.8 15.3 8.7 15.3 5.4 0 8.8-4.1 8.8-15.3l0-42.6 7.3 0 0 41.4c0 16.5-6.8 22.8-16.2 22.8 -9.5 0-15.7-6.2-15.7-21.9l0-42.3 7.3 0Z" class="a"/><path d="M406.4 293.2l3 0c7 0 11.6-5.1 11.6-12.7 0-7.3-3-11.9-10.8-12 -1.4 0-2.8 0.1-3.8 0.4l0 24.3Zm-7.3-29.3c3.1-0.8 6.9-1.2 10.5-1.2 6.3 0 11 1.3 14.3 4.5 3.1 3.2 4.4 7.4 4.4 12.4 0 8.1-3.8 13.4-10.2 16.3l0 0.2c4.7 1.4 7.2 5.9 8.6 14.2 1.4 8.8 2.7 14.1 3.6 16.1l-7.3 0c-0.9-1.9-2.2-7.9-3.4-15.7 -1.4-8.7-4.1-12-10.4-12l-2.8 0 0 27.7 -7.3 0 0-62.5Z" class="a"/><path d="M456 263l24.2 0 0 6.3 -17 0 0 22.2 15.8 0 0 6.1 -15.8 0 0 28.8 -7.3 0 0-63.5Z" class="a"/><path d="M495.3 263l0 42.6c0 11.4 3.8 15.3 8.7 15.3 5.4 0 8.8-4.1 8.8-15.3l0-42.6 7.3 0 0 41.4c0 16.5-6.8 22.8-16.2 22.8 -9.5 0-15.7-6.2-15.7-21.9l0-42.3 7.3 0Z" class="a"/><path d="M539 269.5l-11.6 0 0-6.5 30.4 0 0 6.5 -11.6 0 0 57 -7.3 0 0-57Z" class="a"/><path d="M572.4 263l0 42.6c0 11.4 3.8 15.3 8.7 15.3 5.4 0 8.8-4.1 8.8-15.3l0-42.6 7.3 0 0 41.4c0 16.5-6.8 22.8-16.2 22.8 -9.5 0-15.7-6.2-15.7-21.9l0-42.3 7.3 0Z" class="a"/><path d="M615.5 293.2l3 0c7 0 11.6-5.1 11.6-12.7 0-7.3-3-11.9-10.8-12 -1.4 0-2.8 0.1-3.8 0.4l0 24.3Zm-7.2-29.3c3.1-0.8 6.9-1.2 10.5-1.2 6.3 0 11 1.3 14.3 4.5 3.1 3.2 4.4 7.4 4.4 12.4 0 8.1-3.8 13.4-10.2 16.3l0 0.2c4.7 1.4 7.2 5.9 8.6 14.2 1.4 8.8 2.7 14.1 3.6 16.1l-7.3 0c-0.9-1.9-2.2-7.9-3.4-15.7 -1.4-8.7-4.1-12-10.4-12l-2.8 0 0 27.7 -7.2 0 0-62.5Z" class="a"/><path d="M670.3 296.3l-15.9 0 0 23.8 18.1 0 0 6.3 -25.3 0 0-63.5 24.2 0 0 6.3 -17 0 0 20.9 15.9 0 0 6.1Z" class="a"/><path d="M706.3 269.5l-11.6 0 0-6.5 30.4 0 0 6.5 -11.6 0 0 57 -7.2 0 0-57Z" class="a"/><path d="M736.3 294.7c0 13.1 2.5 26.1 10.5 26.1 8.2 0 10.4-13.8 10.4-26.3 0-11.9-2.2-25.9-10.5-25.9 -7.9 0-10.5 13.2-10.5 26.1m28.4-0.5c0 23.8-8.2 33-18.4 33 -10.6 0-17.6-11.2-17.6-32.6 0-21 7.5-32.4 18.7-32.4 10.8 0 17.3 11.8 17.3 32" class="a"/><path d="M805.6 324.8c-2.7 1.1-7.3 2.2-11.3 2.2 -5.6 0-10.7-1.5-15-6.2 -4.6-4.9-7.7-13.7-7.6-25.2 0.1-24.7 12.7-33.1 23.9-33.1 4 0 7.1 0.8 9 1.8l-1.6 6.2c-1.7-0.8-4-1.5-7.3-1.5 -7.9 0-16.5 6.3-16.5 26 0 19.6 7.4 25.9 15.1 25.9 2.4 0 3.9-0.5 4.4-0.7l0-20.7 -8.2 0 0-6 15.1 0 0 31.6Z" class="a"/><path d="M838.6 296.3l-15.9 0 0 23.8 18.1 0 0 6.3 -25.3 0 0-63.5 24.2 0 0 6.3 -17 0 0 20.9 15.9 0 0 6.1Z" class="a"/><path d="M857.7 269.5l-11.6 0 0-6.5 30.4 0 0 6.5 -11.6 0 0 57 -7.3 0 0-57Z" class="a"/><path d="M891.1 263l0 27.2 17.8 0 0-27.2 7.3 0 0 63.5 -7.3 0 0-29.7 -17.8 0 0 29.7 -7.2 0 0-63.5 7.3 0Z" class="a"/><path d="M950.7 296.3l-15.9 0 0 23.8 18.1 0 0 6.3 -25.3 0 0-63.5 24.2 0 0 6.3 -17 0 0 20.9 15.9 0 0 6.1Z" class="a"/><path d="M967.9 293.2l3 0c7 0 11.6-5.1 11.6-12.7 0-7.3-3-11.9-10.8-12 -1.4 0-2.8 0.1-3.8 0.4l0 24.3Zm-7.3-29.3c3.1-0.8 6.9-1.2 10.5-1.2 6.3 0 11 1.3 14.3 4.5 3.1 3.2 4.4 7.4 4.4 12.4 0 8.1-3.8 13.4-10.2 16.3l0 0.2c4.7 1.4 7.2 5.9 8.6 14.2 1.4 8.8 2.7 14.1 3.6 16.1l-7.3 0c-0.9-1.9-2.2-7.9-3.4-15.7 -1.4-8.7-4.1-12-10.4-12l-2.8 0 0 27.7 -7.3 0 0-62.5Z" class="a"/><path d="M16.4 218.7l0-211.4 34.5 0 0 176.4 61.1 0 0 34.9 -95.6 0Z" class="a"/><path d="M148.6 113.1c0 14.2 0.3 26.3 0.8 36.3 0.6 10 1.7 18.1 3.4 24.3 1.7 6.2 4.1 10.8 7.2 13.6 3.1 2.9 7.2 4.3 12.3 4.3 5.1 0 9.2-1.4 12.3-4.3 3.1-2.9 5.5-7.4 7.2-13.6 1.7-6.2 2.8-14.3 3.4-24.3 0.6-10 0.8-22.1 0.8-36.3 0-14.2-0.3-26.2-0.8-36.1 -0.6-9.9-1.7-18-3.4-24.3 -1.7-6.3-4.1-10.9-7.2-13.8 -3.1-2.9-7.2-4.3-12.3-4.3 -5.1 0-9.2 1.4-12.3 4.3 -3.1 2.9-5.5 7.5-7.2 13.8 -1.7 6.3-2.8 14.4-3.4 24.3 -0.6 9.9-0.8 21.9-0.8 36.1m-34.5 0c0-16 0.6-30.7 1.8-44.3 1.2-13.5 3.8-25.1 7.9-34.8 4.1-9.7 9.9-17.2 17.6-22.6 7.7-5.4 18-8.1 30.9-8.1 12.9 0 23.2 2.7 30.9 8.1 7.7 5.4 13.5 13 17.6 22.6 4.1 9.7 6.7 21.3 7.9 34.8 1.2 13.5 1.8 28.3 1.8 44.3 0 16.2-0.6 31-1.8 44.4 -1.2 13.4-3.8 25-7.9 34.6 -4.1 9.7-9.9 17.1-17.6 22.2 -7.7 5.1-18 7.7-30.9 7.7 -12.9 0-23.2-2.6-30.9-7.7 -7.7-5.1-13.5-12.5-17.6-22.2 -4.1-9.7-6.7-21.2-7.9-34.6 -1.2-13.4-1.8-28.2-1.8-44.4" class="a"/><path d="M314.3 78.7c0-15.4-1.5-26.6-4.4-33.6 -3-7-8.3-10.5-16.2-10.5 -4.3 0-7.9 1.4-10.7 4.3 -2.8 2.9-5 7.5-6.6 13.9 -1.6 6.4-2.7 14.8-3.4 25.2 -0.6 10.4-1 23-1 38 0 16 0.4 28.9 1.3 38.8 0.9 9.9 2.2 17.5 4.1 22.9 1.8 5.4 4.2 9.1 7 11 2.8 1.9 6 2.8 9.7 2.8 3 0 5.9-0.6 8.5-1.9 2.6-1.3 4.9-3.9 6.8-7.7 1.9-3.9 3.4-9.3 4.5-16.3 1.1-7 1.7-16.2 1.7-27.7l34.5 0c0 11.4-0.7 22.3-2.2 32.6 -1.4 10.3-4.1 19.2-8 26.9 -3.9 7.7-9.4 13.7-16.5 18.1 -7.1 4.3-16.3 6.5-27.7 6.5 -12.9 0-23.2-2.6-30.9-7.7 -7.7-5.1-13.5-12.5-17.6-22.2 -4.1-9.7-6.7-21.2-7.9-34.6 -1.2-13.4-1.8-28.2-1.8-44.4 0-16 0.6-30.7 1.8-44.3 1.2-13.5 3.8-25.1 7.9-34.8 4.1-9.7 9.9-17.2 17.6-22.6 7.7-5.4 18-8.1 30.9-8.1 12.3 0 22 2.5 29.1 7.4 7.1 4.9 12.4 11.2 15.9 18.8 3.5 7.6 5.7 15.8 6.6 24.6 0.9 8.8 1.3 17 1.3 24.7l-34.5 0Z" class="a"/><path d="M415.1 44.1l-0.5 0 -16.5 95 33.5 0 -16.5-95Zm66.3 174.7l-35.9 0 -7.9-44.7 -45.5 0 -7.9 44.7 -35.9 0 45.3-211.4 42.6 0 45.3 211.4Z" class="a"/><path d="M483.9 218.7l0-211.4 34.5 0 0 176.4 61.1 0 0 34.9 -95.6 0Z" class="a"/><path d="M607.4 88.4l6 0c3.7 0 6.8-1 9.1-3.1 2.3-2 3.5-5.8 3.5-11.3 0-2.8-0.3-5-0.9-6.9 -0.6-1.8-1.4-3.3-2.5-4.4 -1-1.1-2.3-1.9-3.7-2.3 -1.4-0.4-3-0.7-4.7-0.7l-6.7 0 0 28.6Zm0-42l4.4 0c4.3 0 7.5-1 9.4-2.9 2-1.9 3-5.1 3-9.7 0-4.5-0.9-7.7-2.7-9.6 -1.8-1.9-4.6-2.8-8.5-2.8l-5.6 0 0 24.9Zm-15.5-39l26 0c3.2 0 6.1 0.4 8.8 1.2 2.7 0.8 5 2.1 7 4 1.9 1.9 3.4 4.4 4.5 7.5 1.1 3.1 1.6 6.9 1.6 11.5 0 5.2-1 9.6-2.9 13.3 -1.9 3.7-4.8 6.2-8.7 7.5l0 0.3c4.3 0.7 7.7 3 10.2 6.8 2.5 3.8 3.8 8.9 3.8 15.3 0 3.7-0.4 7.3-1.2 10.7 -0.8 3.4-2.1 6.3-4 8.9 -1.9 2.5-4.4 4.5-7.4 6.1 -3.1 1.5-6.8 2.3-11.4 2.3l-26.2 0 0-95.1Z" class="a"/><path d="M662.1 7.4l0 66.3c0 2.4 0.1 4.6 0.4 6.6 0.3 2 0.7 3.7 1.4 5.2 0.7 1.5 1.6 2.6 2.8 3.5 1.2 0.8 2.7 1.3 4.5 1.3 1.9 0 3.4-0.4 4.5-1.3 1.1-0.8 2.1-2 2.8-3.5 0.7-1.5 1.1-3.2 1.4-5.2 0.3-2 0.4-4.2 0.4-6.6l0-66.3 15.5 0 0 66.3c0 6-0.7 11-2.1 15 -1.4 4-3.2 7.1-5.5 9.4 -2.3 2.3-4.9 3.9-7.9 4.7 -2.9 0.8-6 1.2-9.2 1.2 -3.2 0-6.2-0.4-9.2-1.1 -2.9-0.7-5.6-2.2-7.9-4.3 -2.3-2.2-4.1-5.3-5.5-9.3 -1.4-4-2-9.2-2-15.6l0-66.3 15.5 0Z" class="a"/><path d="M713.6 7.4l10.1 36.8 0.2 0 10.8-36.8 16.8 0 -19.9 57.7 0 37.4 -15.5 0 0-37.4 -19.9-57.7 17.5 0Z" class="a"/><rect x="753.7" y="7.4" width="15.5" height="95.1" class="a"/><path d="M794.3 7.4l18.8 65.1 0.2 0 0-65.1 14.2 0 0 95.1 -17.7 0 -19-66.6 -0.2 0 0 66.6 -14.2 0 0-95.1 17.9 0Z" class="a"/><path d="M868.1 35.7c0-1.8-0.2-3.6-0.5-5.5 -0.3-1.9-0.8-3.6-1.6-5.1 -0.7-1.6-1.6-2.8-2.7-3.9 -1.1-1-2.5-1.5-4-1.5 -3.7 0-6.4 2.6-8.1 7.7 -1.7 5.2-2.5 13.7-2.5 25.6 0 5.7 0.1 10.8 0.4 15.5 0.3 4.6 0.8 8.5 1.6 11.8 0.8 3.2 1.8 5.7 3.2 7.5 1.4 1.7 3.2 2.6 5.4 2.6 0.9 0 2-0.3 3.1-0.9 1.1-0.6 2.2-1.6 3.1-2.8 1-1.2 1.8-2.8 2.4-4.7 0.6-1.9 1-4.2 1-6.7l0-9.7 -10.2 0 0-14.1 25.1 0 0 51.3 -11.4 0 0-8.8 -0.2 0c-1.9 3.7-4.1 6.4-6.7 7.9 -2.6 1.6-5.8 2.3-9.4 2.3 -4.7 0-8.6-1-11.6-3.1 -3-2-5.3-5.2-7-9.5 -1.7-4.3-2.8-9.5-3.4-15.8 -0.6-6.3-0.9-13.5-0.9-21.8 0-8 0.4-15 1.2-21 0.8-6 2.2-11.1 4.3-15.1 2-4 4.7-7.1 8-9.1 3.3-2 7.4-3.1 12.4-3.1 8.5 0 14.6 2.6 18.3 7.8 3.7 5.2 5.6 12.6 5.6 22.3l-14.9 0Z" class="a"/><path d="M607.4 166.6l6.9 0c3.1 0 5.6-1.2 7.5-3.5 1.9-2.3 2.9-5.9 2.9-10.8 0-4.8-0.8-8.4-2.5-10.9 -1.7-2.5-4.4-3.7-8.3-3.7l-6.5 0 0 28.9Zm-15.5-43l27.2 0c4 0 7.3 0.8 10 2.5 2.7 1.6 4.9 3.8 6.5 6.5 1.7 2.7 2.8 5.7 3.6 9.1 0.7 3.4 1.1 6.9 1.1 10.5 0 4.9-0.6 9.1-1.8 12.8 -1.2 3.6-2.8 6.6-5 8.9 -2.1 2.3-4.7 4-7.7 5.2 -3 1.2-6.4 1.7-10 1.7l-8.3 0 0 38 -15.5 0 0-95.1Z" class="a"/><path d="M659 165.2l6.5 0c3.7 0 6.6-1.1 8.6-3.3 2-2.2 3-5.8 3-11 0-8.8-3.6-13.2-10.8-13.2l-7.3 0 0 27.4Zm-15.5-41.6l28.7 0c6.5 0 11.5 2 15.1 6.1 3.6 4 5.4 10.2 5.4 18.4 0 6.4-1 11.6-3.1 15.7 -2.1 4-5.3 6.6-9.7 7.8l0 0.3c3.9 0.7 6.7 2.3 8.5 4.7 1.8 2.4 2.9 6.3 3.3 11.6 0.1 1.8 0.3 3.7 0.3 5.8 0.1 2.1 0.1 4.4 0.2 7 0.1 5.1 0.4 8.9 0.6 11.6 0.4 2.7 1.4 4.5 2.8 5.5l0 0.8 -16.8 0c-0.8-1.3-1.3-2.9-1.5-4.6 -0.2-1.7-0.4-3.5-0.4-5.4l-0.4-18.3c-0.1-3.7-0.9-6.7-2.3-8.8 -1.4-2.1-3.7-3.2-6.9-3.2l-8.3 0 0 40.2 -15.5 0 0-95.1Z" class="a"/><path d="M713 171.2c0 6.4 0.1 11.8 0.4 16.3 0.3 4.5 0.8 8.1 1.5 10.9 0.8 2.8 1.8 4.8 3.2 6.1 1.4 1.3 3.3 1.9 5.6 1.9 2.3 0 4.1-0.6 5.5-1.9 1.4-1.3 2.5-3.3 3.2-6.1 0.8-2.8 1.3-6.4 1.5-10.9 0.3-4.5 0.4-9.9 0.4-16.3 0-6.4-0.1-11.8-0.4-16.3 -0.2-4.4-0.7-8.1-1.5-10.9 -0.8-2.8-1.8-4.9-3.2-6.2 -1.4-1.3-3.2-1.9-5.5-1.9 -2.3 0-4.2 0.6-5.6 1.9 -1.4 1.3-2.5 3.4-3.2 6.2 -0.8 2.8-1.3 6.5-1.5 10.9 -0.3 4.4-0.4 9.9-0.4 16.3m-15.5 0c0-7.2 0.3-13.8 0.8-19.9 0.5-6.1 1.7-11.3 3.6-15.6 1.8-4.4 4.5-7.7 7.9-10.2 3.4-2.4 8.1-3.7 13.9-3.7 5.8 0 10.5 1.2 13.9 3.7 3.4 2.4 6.1 5.8 7.9 10.2 1.8 4.4 3 9.6 3.6 15.7 0.5 6.1 0.8 12.7 0.8 19.9 0 7.3-0.3 13.9-0.8 20 -0.5 6-1.7 11.2-3.6 15.6 -1.8 4.4-4.5 7.7-7.9 10 -3.4 2.3-8.1 3.5-13.9 3.5 -5.8 0-10.5-1.2-13.9-3.5 -3.4-2.3-6.1-5.6-7.9-10 -1.8-4.3-3-9.5-3.6-15.6 -0.5-6-0.8-12.7-0.8-20" class="a"/><path d="M788.9 151.9c0-1.8-0.2-3.6-0.5-5.5 -0.3-1.9-0.8-3.6-1.6-5.1 -0.7-1.6-1.6-2.8-2.7-3.9 -1.1-1-2.5-1.5-4-1.5 -3.7 0-6.4 2.6-8.1 7.7 -1.7 5.2-2.5 13.7-2.5 25.6 0 5.7 0.1 10.8 0.4 15.5 0.3 4.6 0.8 8.5 1.6 11.8 0.8 3.2 1.8 5.7 3.2 7.5 1.4 1.7 3.2 2.6 5.4 2.6 0.9 0 2-0.3 3.1-0.9 1.1-0.6 2.2-1.6 3.1-2.8 1-1.2 1.8-2.8 2.4-4.7 0.6-1.9 1-4.2 1-6.7l0-9.7 -10.2 0 0-14.1 25.1 0 0 51.3 -11.4 0 0-8.8 -0.2 0c-1.9 3.7-4.1 6.4-6.7 7.9 -2.6 1.6-5.8 2.3-9.4 2.3 -4.7 0-8.6-1-11.6-3.1 -3-2-5.3-5.2-7-9.5 -1.7-4.3-2.8-9.5-3.4-15.8 -0.6-6.3-0.9-13.5-0.9-21.8 0-8 0.4-15 1.2-21 0.8-6 2.2-11.1 4.3-15.1 2-4 4.7-7.1 8-9.1 3.3-2 7.4-3.1 12.4-3.1 8.5 0 14.6 2.6 18.3 7.8 3.7 5.2 5.6 12.6 5.6 22.3l-14.9 0Z" class="a"/><path d="M825.9 165.2l6.5 0c3.7 0 6.6-1.1 8.6-3.3 2-2.2 3-5.8 3-11 0-8.8-3.6-13.2-10.8-13.2l-7.3 0 0 27.4Zm-15.5-41.6l28.7 0c6.5 0 11.5 2 15.1 6.1 3.6 4 5.4 10.2 5.4 18.4 0 6.4-1 11.6-3.1 15.7 -2.1 4-5.3 6.6-9.7 7.8l0 0.3c3.9 0.7 6.7 2.3 8.5 4.7 1.8 2.4 2.9 6.3 3.3 11.6 0.1 1.8 0.3 3.7 0.3 5.8 0.1 2.1 0.1 4.4 0.2 7 0.1 5.1 0.4 8.9 0.6 11.6 0.4 2.7 1.4 4.5 2.8 5.5l0 0.8 -16.8 0c-0.8-1.3-1.3-2.9-1.5-4.6 -0.2-1.7-0.4-3.5-0.4-5.4l-0.4-18.3c-0.1-3.7-0.9-6.7-2.3-8.8 -1.4-2.1-3.7-3.2-6.9-3.2l-8.3 0 0 40.2 -15.5 0 0-95.1Z" class="a"/><path d="M890.6 140.1l-0.2 0 -7.4 42.8 15.1 0 -7.4-42.8Zm29.9 78.6l-16.2 0 -3.6-20.1 -20.5 0 -3.6 20.1 -16.2 0 20.4-95.1 19.2 0 20.4 95.1Z" class="a"/><path d="M921.9 123.6l23.1 0 11 67.1 0.2 0 11.1-67.1 23 0 0 95.1 -14.2 0 0-75.9 -0.2 0 -13.7 75.9 -12.1 0 -13.7-75.9 -0.2 0 0 75.9 -14.2 0 0-95.1Z" class="a"/><rect x="2.7" y="239" width="1007.2" height="2" class="a"/></svg>